<?xml version="1.0" encoding="UTF-8" standalone="yes"?>
<!DOCTYPE svg PUBLIC "-//W3C//DTD SVG 1.1//EN" "http://www.w3.org/Graphics/SVG/1.1/DTD/svg11.dtd">
<!-- Drawn by Thomas Rosenau for Wikipedia and for everyone.
     This file is in the public domain.
     Please note: The usage of coats of arms is governed by legal restrictions,
     independent of the images' copyright status. -->
<svg xmlns="http://www.w3.org/2000/svg" xmlns:xlink="http://www.w3.org/1999/xlink" version="1.1" id="Wappen der Stadt Karlsruhe" viewBox="-5 -5 500 600" width="500" height="600">
  <defs>
    <path id="Grund" d="M 0,0 v 345 a 245 245 0 1 0 490,0 V 0 Z" fill="red"/>
    <clipPath id="Maske">
      <use xlink:href="#Grund" id="use1427"/>
    </clipPath>
    <g id="Inhalt" stroke="black" stroke-width="4">
      <rect fill="white" width="700" height="180" x="-5" y="-90"/>
      <rect fill="#fd0" width="700" height="130" x="-5" y="-65"/>
    <path fill="black" stroke="none" d="M 82.550781,-36.117188 L 82.550781,-4.8867188 L 97.023438,-4.8867188 C 100.34371,-4.8866749 102.76558,-5.6093304 104.28906,-7.0546875 C 105.85151,-8.539015 106.88667,-11.449168 107.39453,-15.785156 L 109.5625,-15.785156 L 109.5625,11.109375 L 107.39453,11.109375 C 107.35542,8.0234685 106.94526,5.7578457 106.16406,4.3125 C 105.42183,2.8672236 104.36714,1.793006 103,1.0898438 C 101.67183,0.3476949 99.679646,-0.023398477 97.023438,-0.0234375 L 82.550781,-0.0234375 L 82.550781,24.9375 C 82.550757,28.960948 82.804663,31.617195 83.3125,32.90625 C 83.703099,33.882818 84.523411,34.722661 85.773438,35.425781 C 87.492158,36.363284 89.289031,36.832033 91.164063,36.832031 L 94.035156,36.832031 L 94.035156,39 L 59.933594,39 L 59.933594,36.832031 L 62.746094,36.832031 C 66.027336,36.832033 68.410146,35.875003 69.894531,33.960938 C 70.832018,32.710944 71.300768,29.703134 71.300781,24.9375 L 71.300781,-26.390625 C 71.300768,-30.413993 71.046862,-33.07024 70.539063,-34.359375 C 70.148425,-35.335863 69.347645,-36.175706 68.136719,-36.878906 C 66.457023,-37.816329 64.66015,-38.285079 62.746094,-38.285156 L 59.933594,-38.285156 L 59.933594,-40.453125 L 119.05469,-40.453125 L 119.81641,-22.992188 L 117.76563,-22.992188 C 116.74994,-26.703059 115.55854,-29.4179 114.19141,-31.136719 C 112.86323,-32.894459 111.20307,-34.163989 109.21094,-34.945313 C 107.25776,-35.726488 104.21089,-36.117112 100.07031,-36.117188 L 82.550781,-36.117188 M 160.03125,36.832031 L 160.03125,39 L 125.98828,39 L 125.98828,36.832031 L 128.80078,36.832031 C 132.08202,36.832033 134.46483,35.875003 135.94922,33.960938 C 136.8867,32.710944 137.35545,29.703134 137.35547,24.9375 L 137.35547,-26.390625 C 137.35545,-30.413993 137.10155,-33.07024 136.59375,-34.359375 C 136.20311,-35.335863 135.40233,-36.175706 134.19141,-36.878906 C 132.47265,-37.816329 130.67577,-38.285079 128.80078,-38.285156 L 125.98828,-38.285156 L 125.98828,-40.453125 L 160.03125,-40.453125 L 160.03125,-38.285156 L 157.16016,-38.285156 C 153.91794,-38.285079 151.55466,-37.328049 150.07031,-35.414063 C 149.09372,-34.163989 148.60544,-31.15618 148.60547,-26.390625 L 148.60547,24.9375 C 148.60544,28.960948 148.85935,31.617195 149.36719,32.90625 C 149.75779,33.882818 150.5781,34.722661 151.82813,35.425781 C 153.50778,36.363284 155.28512,36.832033 157.16016,36.832031 L 160.03125,36.832031 M 167.05078,39 L 167.05078,36.832031 L 170.03906,36.832031 C 173.39843,36.832033 175.78124,35.757816 177.1875,33.609375 C 178.04686,32.320319 178.47655,29.429697 178.47656,24.9375 L 178.47656,-26.390625 C 178.47655,-31.351492 177.92967,-34.456958 176.83594,-35.707031 C 175.31249,-37.425705 173.04687,-38.285079 170.03906,-38.285156 L 167.05078,-38.285156 L 167.05078,-40.453125 L 199.39453,-40.453125 C 211.26948,-40.453046 220.29291,-39.105391 226.46484,-36.410156 C 232.67571,-33.714771 237.65618,-29.222588 241.40625,-22.933594 C 245.19523,-16.644476 247.08976,-9.3788579 247.08984,-1.1367188 C 247.08976,9.9179978 243.73039,19.15627 237.01172,26.578125 C 229.47259,34.859379 217.98823,39 202.55859,39 L 167.05078,39 M 189.72656,33.257813 C 194.68747,34.351567 198.84762,34.898442 202.20703,34.898438 C 211.26948,34.898442 218.78901,31.714851 224.76563,25.347656 C 230.74212,18.980489 233.7304,10.347685 233.73047,-0.55078125 C 233.7304,-11.527293 230.74212,-20.179628 224.76563,-26.507813 C 218.78901,-32.835866 211.11324,-35.999925 201.73828,-36 C 198.22262,-35.999925 194.21872,-35.433519 189.72656,-34.300781 L 189.72656,33.257813 M 268.07813,-36.117188 L 268.07813,-4.7109375 L 285.53906,-4.7109375 C 290.07027,-4.7108938 293.09761,-5.3944869 294.62109,-6.7617188 C 296.65229,-8.5585462 297.7851,-11.722606 298.01953,-16.253906 L 300.1875,-16.253906 L 300.1875,11.402344 L 298.01953,11.402344 C 297.4726,7.5351877 296.92573,5.0547214 296.37891,3.9609375 C 295.67573,2.5937864 294.52339,1.5195687 292.92188,0.73828125 C 291.32026,-0.042929707 288.85933,-0.43355432 285.53906,-0.43359375 L 268.07813,-0.43359375 L 268.07813,25.757813 C 268.0781,29.273447 268.23435,31.421883 268.54688,32.203125 C 268.85935,32.945319 269.40622,33.550787 270.1875,34.019531 C 270.96872,34.449223 272.4531,34.664067 274.64063,34.664063 L 288.11719,34.664063 C 292.60933,34.664067 295.87104,34.351567 297.90234,33.726563 C 299.93354,33.101568 301.88666,31.871101 303.76172,30.035156 C 306.18353,27.613293 308.664,23.960953 311.20313,19.078125 L 313.54688,19.078125 L 306.69141,39 L 245.46094,39 L 245.46094,36.832031 L 248.27344,36.832031 C 250.14843,36.832033 251.92577,36.382815 253.60547,35.484375 C 254.85546,34.859379 255.6953,33.92188 256.125,32.671875 C 256.59374,31.421883 256.82811,28.863291 256.82813,24.996094 L 256.82813,-26.625 C 256.82811,-31.663992 256.3203,-34.769457 255.30469,-35.941406 C 253.89843,-37.50383 251.55468,-38.285079 248.27344,-38.285156 L 245.46094,-38.285156 L 245.46094,-40.453125 L 306.69141,-40.453125 L 307.57031,-23.050781 L 305.28516,-23.050781 C 304.46478,-27.230403 303.54681,-30.101493 302.53125,-31.664063 C 301.55463,-33.22649 300.08979,-34.417895 298.13672,-35.238281 C 296.57417,-35.824144 293.82026,-36.117112 289.875,-36.117188 L 268.07813,-36.117188 M 380.78906,17.027344 L 382.72266,17.4375 L 375.92578,39 L 314.40234,39 L 314.40234,36.832031 L 317.39063,36.832031 C 320.74999,36.832033 323.15233,35.738285 324.59766,33.550781 C 325.41796,32.300788 325.82811,29.410166 325.82813,24.878906 L 325.82813,-26.390625 C 325.82811,-31.351492 325.28124,-34.456958 324.1875,-35.707031 C 322.66405,-37.425705 320.39843,-38.285079 317.39063,-38.285156 L 314.40234,-38.285156 L 314.40234,-40.453125 L 350.37891,-40.453125 L 350.37891,-38.285156 C 346.16012,-38.324141 343.19138,-37.933517 341.47266,-37.113281 C 339.79294,-36.292893 338.6406,-35.257738 338.01563,-34.007813 C 337.3906,-32.757741 337.0781,-29.769462 337.07813,-25.042969 L 337.07813,24.878906 C 337.0781,28.121105 337.3906,30.347665 338.01563,31.558594 C 338.48435,32.378913 339.207,32.984381 340.18359,33.375 C 341.16013,33.76563 344.207,33.960943 349.32422,33.960938 L 355.125,33.960938 C 361.2187,33.960943 365.49604,33.511724 367.95703,32.613281 C 370.41791,31.714851 372.664,30.132821 374.69531,27.867188 C 376.7265,25.562513 378.75775,21.949236 380.78906,17.027344 M 417.03125,36.832031 L 417.03125,39 L 382.98828,39 L 382.98828,36.832031 L 385.80078,36.832031 C 389.08202,36.832033 391.46483,35.875003 392.94922,33.960938 C 393.8867,32.710944 394.35545,29.703134 394.35547,24.9375 L 394.35547,-26.390625 C 394.35545,-30.413993 394.10155,-33.07024 393.59375,-34.359375 C 393.20311,-35.335863 392.40233,-36.175706 391.19141,-36.878906 C 389.47265,-37.816329 387.67577,-38.285079 385.80078,-38.285156 L 382.98828,-38.285156 L 382.98828,-40.453125 L 417.03125,-40.453125 L 417.03125,-38.285156 L 414.16016,-38.285156 C 410.91794,-38.285079 408.55466,-37.328049 407.07031,-35.414063 C 406.09372,-34.163989 405.60544,-31.15618 405.60547,-26.390625 L 405.60547,24.9375 C 405.60544,28.960948 405.85935,31.617195 406.36719,32.90625 C 406.75779,33.882818 407.5781,34.722661 408.82813,35.425781 C 410.50778,36.363284 412.28512,36.832033 414.16016,36.832031 L 417.03125,36.832031 M 489.43359,-40.453125 L 490.3125,-21.820313 L 488.08594,-21.820313 C 487.65618,-25.101498 487.07025,-27.445246 486.32813,-28.851563 C 485.11712,-31.117117 483.49603,-32.777272 481.46484,-33.832031 C 479.4726,-34.925707 476.83588,-35.472582 473.55469,-35.472656 L 462.36328,-35.472656 L 462.36328,25.230469 C 462.36324,30.11329 462.89058,33.160162 463.94531,34.371094 C 465.42964,36.011722 467.7148,36.832033 470.80078,36.832031 L 473.55469,36.832031 L 473.55469,39 L 439.86328,39 L 439.86328,36.832031 L 442.67578,36.832031 C 446.03513,36.832033 448.41794,35.816409 449.82422,33.785156 C 450.68356,32.535163 451.11325,29.683603 451.11328,25.230469 L 451.11328,-35.472656 L 441.5625,-35.472656 C 437.85154,-35.472582 435.21483,-35.199145 433.65234,-34.652344 C 431.62108,-33.910083 429.8828,-32.484304 428.4375,-30.375 C 426.99218,-28.265558 426.13281,-25.413998 425.85938,-21.820313 L 423.63281,-21.820313 L 424.57031,-40.453125 L 489.43359,-40.453125 M 534.90234,12.398438 L 504.14063,12.398438 L 498.75,24.9375 C 497.42186,28.023448 496.7578,30.328134 496.75781,31.851563 C 496.7578,33.062506 497.3242,34.136724 498.45703,35.074219 C 499.62889,35.972659 502.12888,36.558596 505.95703,36.832031 L 505.95703,39 L 480.9375,39 L 480.9375,36.832031 C 484.25781,36.246097 486.40624,35.484379 487.38281,34.546875 C 489.37499,32.671881 491.58202,28.863291 494.00391,23.121094 L 521.95313,-42.269531 L 524.00391,-42.269531 L 551.66016,23.824219 C 553.88664,29.136729 555.89836,32.593756 557.69531,34.195313 C 559.53117,35.757816 562.07023,36.636721 565.3125,36.832031 L 565.3125,39 L 533.96484,39 L 533.96484,36.832031 C 537.12885,36.675784 539.25775,36.14844 540.35156,35.25 C 541.48431,34.351567 542.05072,33.257818 542.05078,31.96875 C 542.05072,30.250009 541.26947,27.535168 539.70703,23.824219 L 534.90234,12.398438 M 533.26172,8.0625 L 519.78516,-24.046875 L 505.95703,8.0625 L 533.26172,8.0625 M 619.01953,-42.269531 L 619.01953,-14.789063 L 616.85156,-14.789063 C 616.14839,-20.062441 614.87886,-24.261655 613.04297,-27.386719 C 611.24605,-30.511649 608.66792,-32.992116 605.30859,-34.828125 C 601.94918,-36.663987 598.47262,-37.581955 594.87891,-37.582031 C 590.81638,-37.581955 587.45701,-36.331956 584.80078,-33.832031 C 582.14451,-31.371023 580.81639,-28.558526 580.81641,-25.394531 C 580.81639,-22.972594 581.65623,-20.765565 583.33594,-18.773438 C 585.75779,-15.843695 591.5195,-11.937449 600.62109,-7.0546875 C 608.04292,-3.0702704 613.10151,-0.0038672461 615.79688,2.1445313 C 618.5312,4.253941 620.62104,6.7539385 622.06641,9.6445313 C 623.55072,12.535183 624.29291,15.562523 624.29297,18.726563 C 624.29291,24.742202 621.94916,29.937509 617.26172,34.3125 C 612.61323,38.648438 606.61714,40.816404 599.27344,40.816406 C 596.96872,40.816404 594.80075,40.640623 592.76953,40.289063 C 591.55857,40.093749 589.03904,39.390625 585.21094,38.179688 C 581.42186,36.92969 579.01952,36.30469 578.00391,36.304688 C 577.02733,36.30469 576.24608,36.597659 575.66016,37.183594 C 575.11327,37.769532 574.70311,38.980469 574.42969,40.816406 L 572.26172,40.816406 L 572.26172,13.570313 L 574.42969,13.570313 C 575.4453,19.273457 576.81249,23.550797 578.53125,26.402344 C 580.24998,29.214854 582.86717,31.558601 586.38281,33.433594 C 589.93747,35.308597 593.82419,36.246097 598.04297,36.246094 C 602.92574,36.246097 606.77339,34.957035 609.58594,32.378906 C 612.43745,29.80079 613.86323,26.753918 613.86328,23.238281 C 613.86323,21.285174 613.31636,19.31252 612.22266,17.320313 C 611.16792,15.328149 609.50777,13.472682 607.24219,11.753906 C 605.71871,10.58206 601.55856,8.1015934 594.76172,4.3125 C 587.96482,0.48441352 583.12107,-2.5624584 580.23047,-4.828125 C 577.37889,-7.0937039 575.21093,-9.5937014 573.72656,-12.328125 C 572.24218,-15.062446 571.49999,-18.070255 571.5,-21.351563 C 571.49999,-27.054621 573.68749,-31.95696 578.0625,-36.058594 C 582.43748,-40.19914 588.00388,-42.26945 594.76172,-42.269531 C 598.98043,-42.26945 603.45309,-41.234295 608.17969,-39.164063 C 610.36714,-38.187423 611.91011,-37.699142 612.80859,-37.699219 C 613.82417,-37.699142 614.64448,-37.992111 615.26953,-38.578125 C 615.93354,-39.203047 616.46089,-40.433514 616.85156,-42.269531 L 619.01953,-42.269531"/>
    </g>
  </defs>
  <use xlink:href="#Grund"/>
  <g clip-path="url(#Maske)">
    <use xlink:href="#Inhalt" transform="rotate(45)"/>
  </g>
  <path d="M 0,0 v 345 a 245 245 0 1 0 490,0 V 0 Z" fill="none" stroke="black" stroke-width="4"/>
</svg>